<svg xmlns="http://www.w3.org/2000/svg" xmlns:xlink="http://www.w3.org/1999/xlink" width="150" zoomAndPan="magnify" viewBox="0 0 112.5 112.499997" height="150" preserveAspectRatio="xMidYMid meet" version="1.0"><defs><clipPath id="51050e184c"><path d="M 0 0 L 112.003906 0 L 112.003906 112.003906 L 0 112.003906 Z M 0 0 " clip-rule="nonzero"/></clipPath></defs><g clip-path="url(#51050e184c)"><path fill="#ffffff" d="M 0 0 L 112.003906 0 L 112.003906 112.003906 L 0 112.003906 Z M 0 0 " fill-opacity="1" fill-rule="nonzero"/><path fill="#ffffff" d="M 0 0 L 112.003906 0 L 112.003906 112.003906 L 0 112.003906 Z M 0 0 " fill-opacity="1" fill-rule="nonzero"/></g><path fill="#140149" d="M 20.382812 62.480469 L 67.546875 103.742188 C 73.105469 108.609375 81.8125 104.652344 81.8125 97.261719 L 81.8125 14.738281 C 81.8125 13.910156 81.695312 13.101562 81.460938 12.304688 C 81.230469 11.511719 80.890625 10.769531 80.441406 10.074219 C 79.992188 9.378906 79.457031 8.757812 78.832031 8.21875 C 78.207031 7.679688 77.515625 7.238281 76.761719 6.894531 C 76.011719 6.554688 75.222656 6.324219 74.40625 6.210938 C 73.585938 6.09375 72.769531 6.097656 71.949219 6.21875 C 71.132812 6.339844 70.347656 6.574219 69.597656 6.921875 C 68.847656 7.269531 68.160156 7.714844 67.539062 8.257812 L 20.390625 49.523438 C 19.925781 49.925781 19.511719 50.375 19.148438 50.867188 C 18.78125 51.359375 18.472656 51.882812 18.21875 52.441406 C 17.964844 53 17.773438 53.582031 17.640625 54.179688 C 17.511719 54.78125 17.449219 55.386719 17.449219 56 C 17.449219 56.613281 17.511719 57.21875 17.640625 57.820312 C 17.773438 58.417969 17.964844 59 18.21875 59.558594 C 18.472656 60.117188 18.78125 60.640625 19.148438 61.132812 C 19.511719 61.625 19.925781 62.074219 20.390625 62.480469 Z M 20.382812 62.480469 " fill-opacity="1" fill-rule="nonzero"/></svg>