<svg xmlns="http://www.w3.org/2000/svg" xmlns:xlink="http://www.w3.org/1999/xlink" width="150" zoomAndPan="magnify" viewBox="0 0 112.5 112.499997" height="150" preserveAspectRatio="xMidYMid meet" version="1.0"><defs><clipPath id="cf5f57625a"><path d="M 0 0 L 112.003906 0 L 112.003906 112.003906 L 0 112.003906 Z M 0 0 " clip-rule="nonzero"/></clipPath></defs><g clip-path="url(#cf5f57625a)"><path fill="#ffffff" d="M 0 0 L 112.003906 0 L 112.003906 112.003906 L 0 112.003906 Z M 0 0 " fill-opacity="1" fill-rule="nonzero"/><path fill="#ffffff" d="M 0 0 L 112.003906 0 L 112.003906 112.003906 L 0 112.003906 Z M 0 0 " fill-opacity="1" fill-rule="nonzero"/></g><path fill="#140149" d="M 91.617188 62.480469 L 44.453125 103.742188 C 38.894531 108.609375 30.1875 104.652344 30.1875 97.261719 L 30.1875 14.738281 C 30.1875 13.910156 30.304688 13.101562 30.539062 12.304688 C 30.769531 11.511719 31.109375 10.769531 31.558594 10.074219 C 32.007812 9.378906 32.542969 8.757812 33.167969 8.21875 C 33.792969 7.679688 34.484375 7.238281 35.238281 6.894531 C 35.988281 6.554688 36.777344 6.324219 37.59375 6.210938 C 38.414062 6.09375 39.230469 6.097656 40.050781 6.21875 C 40.867188 6.339844 41.652344 6.574219 42.402344 6.921875 C 43.152344 7.269531 43.839844 7.714844 44.460938 8.257812 L 91.609375 49.523438 C 92.074219 49.925781 92.488281 50.375 92.851562 50.867188 C 93.21875 51.359375 93.527344 51.882812 93.78125 52.441406 C 94.035156 53 94.226562 53.582031 94.359375 54.179688 C 94.488281 54.78125 94.550781 55.386719 94.550781 56 C 94.550781 56.613281 94.488281 57.21875 94.359375 57.820312 C 94.226562 58.417969 94.035156 59 93.78125 59.558594 C 93.527344 60.117188 93.21875 60.640625 92.851562 61.132812 C 92.488281 61.625 92.074219 62.074219 91.609375 62.480469 Z M 91.617188 62.480469 " fill-opacity="1" fill-rule="nonzero"/></svg>